<?xml version="1.0" standalone="no"?>
<!DOCTYPE svg PUBLIC "-//W3C//DTD SVG 20010904//EN"
 "http://www.w3.org/TR/2001/REC-SVG-20010904/DTD/svg10.dtd">
<svg version="1.0" xmlns="http://www.w3.org/2000/svg"
 width="300.000000pt" height="300.000000pt" viewBox="0 0 300.000000 300.000000"
 preserveAspectRatio="xMidYMid meet">
<metadata>
Created by potrace 1.16, written by Peter Selinger 2001-2019
</metadata>
<g transform="translate(0.000000,300.000000) scale(0.100000,-0.100000)"
fill="#000000" stroke="none">
<path d="M1360 2934 c-100 -13 -215 -38 -304 -66 -413 -130 -759 -467 -905
-881 -57 -162 -74 -271 -75 -467 0 -143 4 -194 22 -277 61 -282 190 -523 387
-718 214 -214 462 -344 760 -402 124 -24 386 -24 510 0 512 99 924 450 1094
930 58 164 75 272 75 467 -1 196 -18 305 -75 467 -95 268 -286 523 -516 686
-164 116 -372 205 -573 242 -83 16 -331 27 -400 19z m1231 -691 c141 -63 196
-205 149 -380 -35 -130 -102 -229 -188 -280 -80 -48 -257 -39 -305 15 -16 18
-15 20 22 37 22 9 80 58 129 109 183 188 268 356 197 388 -58 26 -179 -45
-307 -181 -99 -106 -180 -233 -242 -379 -70 -167 -91 -257 -91 -392 0 -103 2
-119 24 -157 35 -61 72 -77 162 -71 169 11 367 162 526 401 44 67 67 87 81 73
13 -13 -101 -219 -176 -318 -189 -252 -435 -372 -662 -324 -203 43 -303 215
-287 491 17 275 167 589 380 791 103 98 210 163 313 189 82 20 215 15 275 -12z
m-1366 -3 c164 -42 260 -110 310 -221 69 -154 29 -382 -94 -537 -81 -102 -233
-193 -388 -233 -42 -10 -78 -21 -80 -23 -2 -2 15 -31 38 -65 96 -144 255 -216
382 -173 l57 19 0 -22 c0 -52 -124 -191 -210 -235 -66 -34 -147 -13 -242 62
-75 59 -172 212 -212 336 -10 28 -19 52 -21 52 -2 0 -16 -36 -30 -81 -17 -56
-25 -102 -25 -156 0 -88 17 -131 68 -173 l35 -28 -44 -12 c-24 -7 -72 -10
-106 -8 -190 12 -239 218 -143 607 53 215 156 493 196 528 41 37 125 56 228
51 53 -2 102 -10 118 -19 l26 -14 -55 -95 c-57 -96 -177 -340 -206 -417 l-17
-42 33 5 c159 28 268 77 360 164 151 141 176 323 58 423 -52 44 -94 52 -251
51 -161 -1 -252 -20 -369 -74 -171 -80 -281 -200 -321 -349 l-11 -44 -35 34
c-72 70 -108 191 -85 286 16 67 91 173 157 223 108 82 287 154 453 184 120 22
332 20 426 -4z"/>
</g>
</svg>
